<?xml version="1.0" standalone="no"?>
<!DOCTYPE svg PUBLIC "-//W3C//DTD SVG 20010904//EN"
 "http://www.w3.org/TR/2001/REC-SVG-20010904/DTD/svg10.dtd">
<svg version="1.0" xmlns="http://www.w3.org/2000/svg"
 width="700.000000pt" height="700.000000pt" viewBox="0 0 700.000000 700.000000"
 preserveAspectRatio="xMidYMid meet">
<metadata>
Created by potrace 1.11, written by Peter Selinger 2001-2013
</metadata>
<g transform="translate(0.000000,700.000000) scale(0.100000,-0.100000)"
fill="#000000" stroke="none">
<path d="M2560 5571 c0 -3 -2 -697 -3 -1541 -2 -844 -7 -1548 -11 -1565 -35
-141 -48 -188 -67 -231 -60 -136 -166 -252 -281 -308 -88 -43 -108 -47 -221
-51 -150 -5 -275 38 -374 129 -125 114 -208 334 -212 561 l-1 50 -247 -1
c-137 -1 -253 -2 -259 -3 -15 -1 -2 -199 21 -326 25 -134 101 -317 178 -425
201 -285 516 -431 913 -424 139 2 153 4 319 38 42 9 133 45 200 79 313 159
511 480 556 906 10 87 13 489 13 1616 l1 1500 -262 1 c-145 1 -263 -1 -263 -5z"/>
<path d="M3991 3529 c0 -1127 3 -2049 7 -2050 27 -4 502 -3 504 1 0 3 2 410 3
904 1 582 5 901 11 903 6 2 318 4 695 6 l684 2 0 220 0 220 -694 5 -695 5 0
697 -1 698 810 2 810 3 0 217 0 217 -1067 0 -1067 -1 0 -2049z"/>
</g>
</svg>
